<?xml version="1.0" encoding="UTF-8" standalone="no"?>
<!-- Created with Inkscape (http://www.inkscape.org/) -->

<svg
   xmlns:dc="http://purl.org/dc/elements/1.1/"
   xmlns:cc="http://creativecommons.org/ns#"
   xmlns:rdf="http://www.w3.org/1999/02/22-rdf-syntax-ns#"
   xmlns:svg="http://www.w3.org/2000/svg"
   xmlns="http://www.w3.org/2000/svg"
   xmlns:sodipodi="http://sodipodi.sourceforge.net/DTD/sodipodi-0.dtd"
   xmlns:inkscape="http://www.inkscape.org/namespaces/inkscape"
   width="210mm"
   height="297mm"
   viewBox="0 0 210 297"
   version="1.1"
   id="svg8"
   sodipodi:docname="logo.svg"
   inkscape:version="0.92.4 5da689c313, 2019-01-14">
  <defs
     id="defs2">
    <inkscape:path-effect
       effect="bspline"
       id="path-effect8537"
       is_visible="true"
       weight="33.333333"
       steps="2"
       helper_size="0"
       apply_no_weight="true"
       apply_with_weight="true"
       only_selected="false" />
    <inkscape:path-effect
       effect="bspline"
       id="path-effect8533"
       is_visible="true"
       weight="33.333333"
       steps="2"
       helper_size="0"
       apply_no_weight="true"
       apply_with_weight="true"
       only_selected="false" />
    <inkscape:path-effect
       effect="bspline"
       id="path-effect8525"
       is_visible="true"
       weight="33.333333"
       steps="2"
       helper_size="0"
       apply_no_weight="true"
       apply_with_weight="true"
       only_selected="false" />
    <inkscape:path-effect
       effect="bspline"
       id="path-effect8521"
       is_visible="true"
       weight="33.333333"
       steps="2"
       helper_size="0"
       apply_no_weight="true"
       apply_with_weight="true"
       only_selected="false" />
    <inkscape:path-effect
       effect="bspline"
       id="path-effect8517"
       is_visible="true"
       weight="33.333333"
       steps="2"
       helper_size="0"
       apply_no_weight="true"
       apply_with_weight="true"
       only_selected="false" />
  </defs>
  <sodipodi:namedview
     id="base"
     pagecolor="#ffffff"
     bordercolor="#666666"
     borderopacity="1.0"
     inkscape:pageopacity="0.0"
     inkscape:pageshadow="2"
     inkscape:zoom="0.5"
     inkscape:cx="172.13544"
     inkscape:cy="675.64596"
     inkscape:document-units="mm"
     inkscape:current-layer="layer1"
     showgrid="false"
     inkscape:object-paths="true"
     inkscape:snap-intersection-paths="true"
     inkscape:snap-smooth-nodes="true"
     inkscape:snap-object-midpoints="true"
     inkscape:snap-midpoints="true"
     inkscape:snap-page="true"
     inkscape:snap-text-baseline="true"
     inkscape:snap-bbox="true"
     inkscape:bbox-paths="true"
     inkscape:snap-bbox-edge-midpoints="true"
     inkscape:snap-bbox-midpoints="true"
     inkscape:bbox-nodes="true"
     inkscape:window-width="1366"
     inkscape:window-height="768"
     inkscape:window-x="0"
     inkscape:window-y="0"
     inkscape:window-maximized="0"
     inkscape:snap-global="true" />
  <metadata
     id="metadata5">
    <rdf:RDF>
      <cc:Work
         rdf:about="">
        <dc:format>image/svg+xml</dc:format>
        <dc:type
           rdf:resource="http://purl.org/dc/dcmitype/StillImage" />
      </cc:Work>
    </rdf:RDF>
  </metadata>
  <g
     inkscape:label="Layer 1"
     inkscape:groupmode="layer"
     id="layer1">
    <g
       id="g3962"
       style="fill:#ff5555;fill-rule:nonzero">
      <rect
         y="120.60211"
         x="63.610146"
         height="105.83872"
         width="83.92263"
         id="rect3942"
         style="fill:#ff5555;stroke-width:0.23223543;fill-rule:nonzero" />
      <ellipse
         ry="40.632439"
         rx="41.961311"
         cy="120.60211"
         cx="105.57146"
         id="path3956"
         style="fill:#ff5555;stroke-width:0.35574242;fill-rule:nonzero" />
    </g>
    <rect
       y="116.63174"
       x="-97.760979"
       height="1.6241133"
       width="16.586458"
       id="rect8664"
       style="fill:#4d4d4d;fill-rule:nonzero;stroke-width:0.16068169"
       transform="scale(-1,1)" />
    <g
       id="g8680"
       transform="matrix(-0.60766875,0,0,0.60766875,175.63722,100.43321)">
      <a
         id="a8670">
        <path
           sodipodi:nodetypes="ccc"
           transform="translate(-0.04725344,-0.13166646)"
           inkscape:original-d="m 155.48404,29.329567 c 5.16543,-0.504232 10.33059,-1.008201 15.4955,-1.511905 1.43591,-4.514886 2.87154,-9.0295 4.30692,-13.543853"
           inkscape:path-effect="#path-effect8533"
           inkscape:connector-curvature="0"
           id="path8668"
           d="m 155.48404,29.329567 c 5.16545,-0.503996 10.33061,-1.007964 13.63093,-3.517404 3.30031,-2.50944 4.73595,-7.024052 6.17149,-11.538354"
           style="fill:none;stroke:#000000;stroke-width:0.26458332px;stroke-linecap:butt;stroke-linejoin:miter;stroke-opacity:1" />
      </a>
      <path
         style="fill:none;stroke:#000000;stroke-width:0.26458332px;stroke-linecap:butt;stroke-linejoin:miter;stroke-opacity:1"
         d="m 155.44579,26.789163 c 5.26264,-0.309155 10.52502,-0.618294 13.8238,-2.726179 3.29878,-2.107885 4.63429,-6.014625 5.96961,-9.920842"
         id="path8672"
         inkscape:connector-curvature="0"
         inkscape:path-effect="#path-effect8537"
         inkscape:original-d="m 155.44579,26.789163 c 5.26263,-0.309403 10.52501,-0.618542 15.78711,-0.927416 1.33563,-3.906594 2.67113,-7.813335 4.0063,-11.719605"
         sodipodi:nodetypes="ccc" />
      <path
         transform="scale(0.26458333)"
         inkscape:connector-curvature="0"
         id="path8674"
         d="m 592.05953,100.17476 c 0.0573,-0.0475 2.74792,-1.252837 5.97917,-2.678487 17.75512,-7.833677 28.82808,-14.794987 34.74497,-21.843338 3.5822,-4.267217 6.04124,-8.970676 7.65492,-14.641782 0.57769,-2.030201 0.59846,-2.063659 0.46569,-0.75 -0.44835,4.436091 -2.2305,10.921998 -4.08052,14.850461 -3.86384,8.204791 -11.01048,15.246437 -22.41006,22.080824 l -2.5,1.498825 -3.875,0.410368 c -6.80744,0.720917 -16.32518,1.360109 -15.97917,1.073129 z"
         style="fill:#333333;fill-rule:nonzero;stroke-width:0.25" />
      <path
         transform="scale(0.26458333)"
         inkscape:connector-curvature="0"
         id="path8676"
         d="m 587.5387,105.80342 v -3.93893 l 7.0625,-0.45022 c 3.88437,-0.24763 8.62952,-0.60698 10.54477,-0.79856 1.91526,-0.19159 3.52057,-0.31004 3.56737,-0.26325 0.1387,0.1387 -7.15795,3.93504 -12.68603,6.60037 -4.43258,2.13714 -5.36606,2.49792 -6.8125,2.63299 l -1.67611,0.15652 z"
         style="fill:#333333;fill-rule:nonzero;stroke-width:0.25" />
      <path
         transform="scale(0.26458333)"
         inkscape:connector-curvature="0"
         id="path8678"
         d="m 600.4137,106.16846 c 3.1625,-1.58207 7.16746,-3.65551 8.89992,-4.60765 2.78496,-1.53057 3.39325,-1.765546 5.25,-2.028033 9.47654,-1.339689 17.8357,-3.775579 23.37433,-6.811358 4.43401,-2.430328 8.9115,-6.373463 11.97526,-10.546089 0.669,-0.911142 1.25955,-1.613443 1.31233,-1.560668 0.15465,0.15465 -1.38113,2.808341 -3.34015,5.771491 -6.07771,9.192929 -13.74618,14.519077 -25.84669,17.951837 -7.01233,1.98931 -12.81313,3.00195 -26.125,4.5606 -1.11974,0.13111 -0.65078,-0.15341 4.5,-2.73013 z"
         style="fill:#333333;fill-rule:nonzero;stroke-width:0.25" />
    </g>
    <g
       transform="matrix(-0.57043725,-0.20943413,-0.20943413,0.57043725,175.35722,134.00934)"
       id="g8686">
      <path
         sodipodi:nodetypes="ccc"
         transform="translate(-0.04725344,-0.13166646)"
         inkscape:original-d="m 155.48404,29.329567 c 5.16543,-0.504232 10.33059,-1.008201 15.4955,-1.511905 1.43591,-4.514886 2.87154,-9.0295 4.30692,-13.543853"
         inkscape:path-effect="#path-effect8533"
         inkscape:connector-curvature="0"
         id="path8682"
         d="m 155.48404,29.329567 c 5.16545,-0.503996 10.33061,-1.007964 13.63093,-3.517404 3.30031,-2.50944 4.73595,-7.024052 6.17149,-11.538354"
         style="fill:none;stroke:#000000;stroke-width:0.26458332px;stroke-linecap:butt;stroke-linejoin:miter;stroke-opacity:1" />
      <path
         sodipodi:nodetypes="ccc"
         inkscape:original-d="m 155.38733,26.73247 c 5.28213,-0.290394 10.56399,-0.580636 15.84557,-0.870723 1.33563,-3.906594 2.67113,-7.813335 4.0063,-11.719605"
         inkscape:path-effect="#path-effect8537"
         inkscape:connector-curvature="0"
         id="path8684"
         d="m 155.38733,26.73247 c 5.28214,-0.290256 10.564,-0.580498 13.87252,-2.678934 3.30852,-2.098437 4.64403,-6.005177 5.97935,-9.911394"
         style="fill:none;stroke:#000000;stroke-width:0.26458332px;stroke-linecap:butt;stroke-linejoin:miter;stroke-opacity:1" />
    </g>
    <rect
       transform="scale(-1,1)"
       style="fill:#4d4d4d;fill-rule:nonzero;stroke-width:0.16068169"
       id="rect8688"
       width="16.586458"
       height="1.6241133"
       x="-132.95056"
       y="116.63174" />
    <g
       transform="matrix(-0.60766875,0,0,0.60766875,210.8268,100.43321)"
       id="g8702">
      <a
         id="a8692">
        <path
           style="fill:none;stroke:#000000;stroke-width:0.26458332px;stroke-linecap:butt;stroke-linejoin:miter;stroke-opacity:1"
           d="m 155.48404,29.329567 c 5.16545,-0.503996 10.33061,-1.007964 13.63093,-3.517404 3.30031,-2.50944 4.73595,-7.024052 6.17149,-11.538354"
           id="path8690"
           inkscape:connector-curvature="0"
           inkscape:path-effect="#path-effect8533"
           inkscape:original-d="m 155.48404,29.329567 c 5.16543,-0.504232 10.33059,-1.008201 15.4955,-1.511905 1.43591,-4.514886 2.87154,-9.0295 4.30692,-13.543853"
           transform="translate(-0.04725344,-0.13166646)"
           sodipodi:nodetypes="ccc" />
      </a>
      <path
         sodipodi:nodetypes="ccc"
         inkscape:original-d="m 155.44579,26.789163 c 5.26263,-0.309403 10.52501,-0.618542 15.78711,-0.927416 1.33563,-3.906594 2.67113,-7.813335 4.0063,-11.719605"
         inkscape:path-effect="#path-effect8537"
         inkscape:connector-curvature="0"
         id="path8694"
         d="m 155.44579,26.789163 c 5.26264,-0.309155 10.52502,-0.618294 13.8238,-2.726179 3.29878,-2.107885 4.63429,-6.014625 5.96961,-9.920842"
         style="fill:none;stroke:#000000;stroke-width:0.26458332px;stroke-linecap:butt;stroke-linejoin:miter;stroke-opacity:1" />
      <path
         style="fill:#333333;fill-rule:nonzero;stroke-width:0.25"
         d="m 592.05953,100.17476 c 0.0573,-0.0475 2.74792,-1.252837 5.97917,-2.678487 17.75512,-7.833677 28.82808,-14.794987 34.74497,-21.843338 3.5822,-4.267217 6.04124,-8.970676 7.65492,-14.641782 0.57769,-2.030201 0.59846,-2.063659 0.46569,-0.75 -0.44835,4.436091 -2.2305,10.921998 -4.08052,14.850461 -3.86384,8.204791 -11.01048,15.246437 -22.41006,22.080824 l -2.5,1.498825 -3.875,0.410368 c -6.80744,0.720917 -16.32518,1.360109 -15.97917,1.073129 z"
         id="path8696"
         inkscape:connector-curvature="0"
         transform="scale(0.26458333)" />
      <path
         style="fill:#333333;fill-rule:nonzero;stroke-width:0.25"
         d="m 587.5387,105.80342 v -3.93893 l 7.0625,-0.45022 c 3.88437,-0.24763 8.62952,-0.60698 10.54477,-0.79856 1.91526,-0.19159 3.52057,-0.31004 3.56737,-0.26325 0.1387,0.1387 -7.15795,3.93504 -12.68603,6.60037 -4.43258,2.13714 -5.36606,2.49792 -6.8125,2.63299 l -1.67611,0.15652 z"
         id="path8698"
         inkscape:connector-curvature="0"
         transform="scale(0.26458333)" />
      <path
         style="fill:#333333;fill-rule:nonzero;stroke-width:0.25"
         d="m 600.4137,106.16846 c 3.1625,-1.58207 7.16746,-3.65551 8.89992,-4.60765 2.78496,-1.53057 3.39325,-1.765546 5.25,-2.028033 9.47654,-1.339689 17.8357,-3.775579 23.37433,-6.811358 4.43401,-2.430328 8.9115,-6.373463 11.97526,-10.546089 0.669,-0.911142 1.25955,-1.613443 1.31233,-1.560668 0.15465,0.15465 -1.38113,2.808341 -3.34015,5.771491 -6.07771,9.192929 -13.74618,14.519077 -25.84669,17.951837 -7.01233,1.98931 -12.81313,3.00195 -26.125,4.5606 -1.11974,0.13111 -0.65078,-0.15341 4.5,-2.73013 z"
         id="path8700"
         inkscape:connector-curvature="0"
         transform="scale(0.26458333)" />
    </g>
    <g
       id="g8708"
       transform="matrix(-0.57043725,-0.20943413,-0.20943413,0.57043725,210.5468,134.00934)">
      <path
         style="fill:none;stroke:#000000;stroke-width:0.26458332px;stroke-linecap:butt;stroke-linejoin:miter;stroke-opacity:1"
         d="m 155.48404,29.329567 c 5.16545,-0.503996 10.33061,-1.007964 13.63093,-3.517404 3.30031,-2.50944 4.73595,-7.024052 6.17149,-11.538354"
         id="path8704"
         inkscape:connector-curvature="0"
         inkscape:path-effect="#path-effect8533"
         inkscape:original-d="m 155.48404,29.329567 c 5.16543,-0.504232 10.33059,-1.008201 15.4955,-1.511905 1.43591,-4.514886 2.87154,-9.0295 4.30692,-13.543853"
         transform="translate(-0.04725344,-0.13166646)"
         sodipodi:nodetypes="ccc" />
      <path
         style="fill:none;stroke:#000000;stroke-width:0.26458332px;stroke-linecap:butt;stroke-linejoin:miter;stroke-opacity:1"
         d="m 155.38733,26.73247 c 5.28214,-0.290256 10.564,-0.580498 13.87252,-2.678934 3.30852,-2.098437 4.64403,-6.005177 5.97935,-9.911394"
         id="path8706"
         inkscape:connector-curvature="0"
         inkscape:path-effect="#path-effect8537"
         inkscape:original-d="m 155.38733,26.73247 c 5.28213,-0.290394 10.56399,-0.580636 15.84557,-0.870723 1.33563,-3.906594 2.67113,-7.813335 4.0063,-11.719605"
         sodipodi:nodetypes="ccc" />
    </g>
  </g>
</svg>
